<svg width="33" height="32" viewBox="0 0 33 32" fill="none" xmlns="http://www.w3.org/2000/svg">
<path fill-rule="evenodd" clip-rule="evenodd" d="M16.7646 30.402C24.7176 30.402 31.1646 23.9549 31.1646 16.002C31.1646 8.04905 24.7176 1.60195 16.7646 1.60195C8.81175 1.60195 2.36465 8.04905 2.36465 16.002C2.36465 23.9549 8.81175 30.402 16.7646 30.402ZM16.7646 32.002C25.6012 32.002 32.7646 24.8385 32.7646 16.002C32.7646 7.1654 25.6012 0.00195312 16.7646 0.00195312C7.92809 0.00195312 0.764648 7.1654 0.764648 16.002C0.764648 24.8385 7.92809 32.002 16.7646 32.002Z" fill="#6A5670"/>
<path d="M10.2989 11.3297H8.39347C8.37062 11.9001 7.56641 12.8719 6.36465 12.8719V14.4415C7.39734 14.4415 8.06904 14.0582 8.2701 13.748H8.35692V20.6742H10.2989V11.3297Z" fill="#6A5670"/>
<path d="M16.0164 20.802C18.1183 20.802 19.64 19.675 19.6491 18.1601C19.64 16.9921 18.7444 16.0385 17.6203 15.8514V15.7875C18.5981 15.5867 19.2927 14.7381 19.3018 13.716C19.2927 12.2696 17.9036 11.202 16.0164 11.202C14.1155 11.202 12.7264 12.2696 12.7356 13.716C12.7264 14.7381 13.421 15.5867 14.4171 15.7875V15.8514C13.2748 16.0385 12.3791 16.9921 12.3883 18.1601C12.3791 19.675 13.8962 20.802 16.0164 20.802ZM16.0164 19.351C15.0705 19.351 14.4354 18.7989 14.4445 18.005C14.4354 17.1974 15.1025 16.6134 16.0164 16.6134C16.9166 16.6134 17.5791 17.1974 17.5883 18.005C17.5791 18.7989 16.9486 19.351 16.0164 19.351ZM16.0164 15.1761C15.2213 15.1761 14.6547 14.6605 14.6639 13.9213C14.6547 13.1959 15.2122 12.6894 16.0164 12.6894C16.8069 12.6894 17.3598 13.1959 17.369 13.9213C17.3598 14.6605 16.7978 15.1761 16.0164 15.1761Z" fill="#6A5670"/>
<path d="M27.1646 15.2491H24.9165V13.0818H23.3857V15.2491H21.1376V16.7548H23.3857V18.9221H24.9165V16.7548H27.1646V15.2491Z" fill="#6A5670"/>
</svg>
