<svg width="20" height="20" viewBox="0 0 20 20" fill="none" xmlns="http://www.w3.org/2000/svg">
<path fill-rule="evenodd" clip-rule="evenodd" d="M6.55592 1.54512C7.25159 0.897052 8.93829 -0.304976 10.1197 0.0714743C11.3011 0.447924 12.1081 1.80373 12.3639 2.43457C11.8299 2.99683 10.4173 4.01154 9.03901 3.57234C7.66071 3.13315 6.80932 2.03787 6.55592 1.54512ZM14.7408 9.41983C14.3049 8.17049 13.9481 5.65027 15.2301 3.239L15.4253 2.90843L15.4212 2.90806L15.4172 2.90769L15.4253 2.89414L15.3745 2.90453C13.3639 2.76106 10.4817 4.12065 8.56819 7.11733C7.91343 6.84541 7.19683 6.69544 6.44574 6.69544C3.34617 6.69544 0.833496 9.24833 0.833496 12.3974C0.833496 15.5465 3.34617 18.0993 6.44574 18.0993C9.54531 18.0993 12.058 15.5465 12.058 12.3974C12.058 10.3414 10.987 8.53967 9.38089 7.53644C10.3132 6.11318 12.0358 4.3252 14.0657 3.93578C13.567 5.15543 13.1505 7.11993 13.8079 9.35765C13.3792 9.36749 12.9634 9.42986 12.5661 9.53825C12.9605 10.4082 13.1804 11.3767 13.1804 12.3974C13.1804 14.8478 11.9126 16.9976 10.0069 18.2061C10.9665 19.3064 12.3679 20 13.9287 20C16.8217 20 19.1668 17.6173 19.1668 14.6782C19.1668 12.0197 17.2481 9.8163 14.7408 9.41983ZM15.0512 18.7022C16.663 18.2391 17.8728 16.8032 18.0276 15.0583H16.944C16.8561 16.2522 16.0567 17.1229 15.0512 17.5186V18.7022ZM10.9355 12.299C10.7401 14.5022 9.21245 16.3153 7.17728 16.9001V15.7136C8.56819 15.21 9.59539 14.035 9.76325 12.299H10.9355Z" fill="#09080C"/>
</svg>
