<svg width="20" height="20" viewBox="0 0 20 20" fill="none" xmlns="http://www.w3.org/2000/svg">
<path fill-rule="evenodd" clip-rule="evenodd" d="M10.0002 19.1666C15.0628 19.1666 19.1668 15.0625 19.1668 9.99992C19.1668 4.93731 15.0628 0.833252 10.0002 0.833252C4.93755 0.833252 0.833496 4.93731 0.833496 9.99992C0.833496 15.0625 4.93755 19.1666 10.0002 19.1666ZM9.0079 15.2699L8.60082 17.5402C7.50357 17.3379 6.48817 16.902 5.60811 16.2859L6.92549 14.3929C7.538 14.8224 8.24445 15.1271 9.0079 15.2699ZM5.60719 13.0746L3.71418 14.392C3.09812 13.5119 2.66217 12.4965 2.45983 11.3992L4.73016 10.9922C4.87301 11.7556 5.17768 12.4621 5.60719 13.0746ZM4.71047 9.11947L2.44008 8.71238C2.62737 7.60467 3.0522 6.57771 3.66036 5.68573L5.55351 7.00321C5.13189 7.62761 4.83832 8.34558 4.71047 9.11947ZM6.87175 5.64509C7.49124 5.19928 8.20972 4.88239 8.9879 4.7337L8.58081 2.46331C7.46881 2.67143 6.44135 3.11959 5.55427 3.75194L6.87175 5.64509ZM17.5568 8.69232L15.2865 9.09939C15.1531 8.31063 14.8475 7.58044 14.4096 6.94885L16.3026 5.63147C16.927 6.53061 17.3639 7.56975 17.5568 8.69232ZM14.3686 3.69748C13.4695 3.07306 12.4303 2.63612 11.3077 2.44325L10.9007 4.71358C11.6894 4.84697 12.4197 5.15262 13.0513 5.59049L14.3686 3.69748ZM17.5368 11.4192C17.3286 12.5313 16.8805 13.5587 16.2481 14.4458L14.355 13.1283C14.8008 12.5088 15.1177 11.7903 15.2664 11.0122L17.5368 11.4192ZM12.9969 14.4466L14.3143 16.3397C13.4224 16.9479 12.3954 17.3727 11.2877 17.56L10.8806 15.2896C11.6545 15.1618 12.3725 14.8682 12.9969 14.4466ZM8.61072 8.73958L9.9159 6.1107L11.2518 8.72974L13.8363 10.031L11.1962 11.3253L9.8745 13.9099L8.63642 11.342L6.03707 10.0724L8.61072 8.73958Z" fill="#09080C"/>
</svg>
