<svg viewBox="0 0 106 40" fill="none" xmlns="http://www.w3.org/2000/svg">
  <g clip-path="url(#clip0_1036_176907)">
    <g clip-path="url(#clip1_1036_176907)">
      <path d="M23.6655 10.4998L18.4988 2.90552L13.332 10.4998H23.6655Z" fill="#668D3C"/>
      <path d="M28.8335 10.5001L30.886 2L18.5 10.5001H28.8335Z" fill="#9CB844"/>
      <path d="M8.16582 10.5008L6.11328 2.00073L18.4993 10.5008H8.16582Z" fill="#9CB844"/>
      <path d="M18.5 27.5005L23.6667 36.0006L28.8335 27.5005H18.5Z" fill="#58237A"/>
      <path d="M13.334 36.0006L18.5007 27.5005L23.6675 36.0006H13.334Z" fill="#49267A"/>
      <path d="M8.16602 27.5005L13.3327 36.0006L18.4995 27.5005H8.16602Z" fill="#58237A"/>
      <path d="M18.5 10.5L23.6667 19.0001L28.8335 10.5H18.5Z" fill="#B53481"/>
      <path d="M8.16602 10.5L13.3327 19.0001L18.4995 10.5H8.16602Z" fill="#B53481"/>
      <path d="M18.5 27.4998L23.6667 18.9998L28.8335 27.4998H18.5Z" fill="#6E297D"/>
      <path d="M8.16602 27.4998L13.3327 18.9998L18.4995 27.4998H8.16602Z" fill="#6E297D"/>
      <path d="M13.334 19.0001L18.5007 10.5L23.6675 19.0001H13.334Z" fill="#DA7396"/>
      <path d="M23.666 18.9998L28.8327 10.4998L33.9995 18.9998H23.666Z" fill="#8F3682"/>
      <path d="M3 19.0018L8.16674 10.5017L13.3335 19.0018H3Z" fill="#8F3682"/>
      <path d="M13.334 18.9998L18.5007 27.4998L23.6675 18.9998H13.334Z" fill="#A6488B"/>
      <path d="M23.666 18.9998L28.8328 27.4998L33.9995 18.9998H23.666Z" fill="#753582"/>
      <path d="M3 18.9998L8.16674 27.4998L13.3335 18.9998H3Z" fill="#753582"/>
    </g>
    <path fill-rule="evenodd" clip-rule="evenodd"
          d="M79.9623 22.4763C79.9623 22.1872 80.0743 21.8674 80.4393 21.8674H80.8302L87.3102 29.0372V22.4261C87.3102 22.184 87.5398 21.9691 87.7873 21.9691H88.7457C88.9956 21.9691 89.2228 22.1862 89.2228 22.4261V32.4935C89.2228 32.7356 88.9932 32.9504 88.7457 32.9504H88.3533L81.8746 25.5857V32.3918C81.8746 32.6339 81.6449 32.8488 81.3975 32.8488H80.439C80.1892 32.8488 79.962 32.6316 79.962 32.3918L79.9623 22.4763ZM41.834 27.612C41.834 24.5814 44.4581 21.9688 47.6358 21.9688C49.2788 21.9688 50.3798 22.4958 51.468 23.431L51.4742 23.4363C51.6418 23.5964 51.6433 23.8918 51.4789 24.0544L50.8354 24.7713C50.6668 24.9323 50.3761 24.926 50.1963 24.7788C49.473 24.1868 48.5494 23.798 47.6358 23.798C45.4931 23.798 43.853 25.5539 43.853 27.5104C43.853 29.4668 45.4931 31.2227 47.6358 31.2227C48.7561 31.2227 49.4662 30.8387 50.1923 30.2451C50.362 30.0887 50.668 30.0902 50.8351 30.2497L51.5806 30.9616C51.7499 31.1232 51.7499 31.4226 51.5806 31.5842C50.4798 32.6353 49.0519 33.0519 47.6358 33.0519C44.4658 33.0519 41.834 30.6501 41.834 27.612ZM64.625 24.8664C64.625 23.6694 65.6484 21.9688 68.1904 21.9688C69.4301 21.9688 70.4136 22.4393 70.88 22.7214C70.9829 22.7836 71.093 22.8481 71.1799 22.9311C71.3117 23.0569 71.5401 23.275 71.3106 23.6175C71.1687 23.8293 71.0257 24.0399 70.8745 24.2457C70.66 24.5378 70.4543 24.5531 70.1428 24.3776C69.5224 24.0281 68.8265 23.6963 68.0839 23.6963C66.8845 23.6963 66.431 24.4498 66.431 24.8664C66.431 25.5958 66.9949 26.0561 68.353 26.5549L68.3564 26.5561C70.1804 27.2733 71.7558 28.1384 71.7558 30.0526C71.7558 31.682 70.1719 33.0519 68.0839 33.0519C66.8174 33.0519 65.5367 32.6622 64.6518 31.7645C64.4438 31.5534 64.497 31.3201 64.6419 31.1027C64.808 30.8533 64.9038 30.7108 65.0806 30.4696C65.2625 30.2214 65.5907 30.1624 65.8519 30.3514C66.5339 30.8451 67.3033 31.3244 68.1904 31.3244C69.198 31.3244 69.8433 30.7563 69.8433 30.0526C69.8433 29.2421 69.0733 28.7632 67.5981 28.1594C65.9814 27.5416 64.625 26.6686 64.625 24.8664ZM75.0078 22.071C74.7603 22.071 74.5307 22.2859 74.5307 22.528V32.392C74.5307 32.6318 74.7579 32.8489 75.0078 32.8489H76.0727C76.3201 32.8489 76.5498 32.6341 76.5498 32.392V22.528C76.5498 22.2881 76.3226 22.071 76.0727 22.071H75.0078ZM58.4405 22.2858C58.2436 21.9207 57.7845 21.8843 57.5993 22.2829L52.8276 32.2057C52.6863 32.4701 52.9207 32.8346 53.2307 32.8412C53.5865 32.8489 54.2386 32.8489 54.2386 32.8489C54.4558 32.8489 54.6295 32.7164 54.7122 32.5328C55.0126 31.8654 55.3153 31.2823 55.6198 30.6117H60.5269L61.4314 32.531C61.4549 32.7324 61.6673 32.8489 61.9063 32.8489H62.8648C63.2087 32.8489 63.3616 32.4985 63.2197 32.2242L58.4405 22.2858ZM56.295 28.9859L58.0206 25.3245L59.7461 28.9859H56.295ZM97.6901 21.9688C94.5122 21.9688 91.9947 24.4798 91.9947 27.5104C91.9947 30.5447 94.5161 32.9502 97.6901 32.9502C100.969 32.9502 103.492 30.5465 103.492 27.5104C103.492 24.476 100.864 21.9688 97.6901 21.9688ZM93.8004 27.4089C93.8004 25.3587 95.5388 23.6966 97.6897 23.6966C99.8405 23.6966 101.579 25.3587 101.579 27.4089C101.579 29.4591 99.8405 31.1213 97.6897 31.1213C95.5388 31.1213 93.8004 29.4591 93.8004 27.4089Z"
          fill="white"/>
    <path fill-rule="evenodd" clip-rule="evenodd"
          d="M103.654 17.2743L98.9263 7.18196C98.7368 6.78116 98.0009 6.85789 97.8313 7.22795L93.1101 17.306C92.9813 17.6209 93.3991 17.8804 93.6721 17.8804H94.6976C94.8975 17.8804 95.0752 17.7458 95.1537 17.5734C95.194 17.4849 96.0279 15.6096 96.0279 15.6096H100.854L101.727 17.5702C101.81 17.7551 101.953 17.8804 102.184 17.8804H103.21C103.556 17.8804 103.822 17.6022 103.654 17.2743ZM61.3164 7.22778L65.9154 17.2749C66.0827 17.6027 65.8169 17.8803 65.4705 17.8803H64.445C64.2142 17.8803 64.0727 17.7637 63.9875 17.5701L63.1147 15.6096H58.2889L57.4146 17.5734C57.3229 17.7696 57.1365 17.8803 56.9586 17.8803H55.933C55.5864 17.8803 55.3207 17.6022 55.4885 17.2743L60.1948 7.22789C60.4016 6.84847 61.0993 6.79598 61.3164 7.22778ZM68.4447 7.12028C68.1694 7.12028 67.9853 7.29822 67.9853 7.56395V17.4367C67.9853 17.7025 68.1694 17.8804 68.4447 17.8804H73.9826C74.2579 17.8804 74.442 17.7025 74.442 17.4367V16.6469C74.442 16.3812 74.2579 16.2032 73.9826 16.2032H69.9296V7.56395C69.9296 7.29822 69.7456 7.12028 69.4702 7.12028H68.4447ZM76.8536 7.12028C76.5782 7.12028 76.3942 7.29822 76.3942 7.56395V17.4367C76.3942 17.7025 76.5782 17.8804 76.8536 17.8804H77.8791C78.1545 17.8804 78.3385 17.7025 78.3385 17.4367V7.56395C78.3385 7.29822 78.1545 7.12028 77.8791 7.12028H76.8536ZM43.7778 17.55L44.8457 11.1945L47.4968 17.7167C47.5783 17.9192 47.7518 17.9786 47.9338 17.9786H48.3441C48.5759 17.9786 48.7202 17.8701 48.8019 17.6657L51.3596 11.373L52.3975 17.55C52.4109 17.7445 52.6739 17.8799 52.8564 17.8799H53.882C54.1591 17.8799 54.3964 17.6657 54.3414 17.4225L52.3815 7.29354C52.293 6.90821 51.4636 6.84836 51.3008 7.29354L48.1888 14.7024L44.9854 7.28185C44.7736 6.83339 44.0061 6.88577 43.8858 7.34783L41.834 17.4362C41.834 17.702 42.018 17.8799 42.2934 17.8799H43.3189C43.5017 17.8799 43.764 17.7498 43.7778 17.55ZM62.8371 14.3261L60.6463 9.77503L58.5708 14.3261H62.8371ZM82.2893 7.02107C82.014 7.02107 81.8299 7.19901 81.8299 7.46474V17.6337C81.8299 17.8994 82.014 18.0774 82.2893 18.0774H83.3149C83.5902 18.0774 83.7743 17.8994 83.7743 17.6337V10.7275L90.3211 18.1761H90.8013C91.0766 18.1761 91.2607 17.9982 91.2607 17.7324V7.6622C91.2607 7.39647 91.0766 7.21853 90.8013 7.21853H89.7758C89.5004 7.21853 89.3164 7.39647 89.3164 7.6622V14.28L82.7683 7.02107H82.2893ZM98.3313 9.68714L100.576 14.326H96.2069L98.3313 9.68714Z"
          fill="#EB6C97"/>
  </g>
  <defs>
    <clipPath id="clip0_1036_176907">
      <rect width="106" height="40" fill="white"/>
    </clipPath>
    <clipPath id="clip1_1036_176907">
      <rect width="31" height="34" fill="white" transform="translate(3 2)"/>
    </clipPath>
  </defs>
</svg>
