<svg viewBox="0 0 37 40" fill="none" xmlns="http://www.w3.org/2000/svg">
  <g clip-path="url(#clip0_43272_20956)">
    <g clip-path="url(#clip1_43272_20956)">
      <path d="M23.6655 10.4998L18.4988 2.90552L13.332 10.4998H23.6655Z" fill="#668D3C"/>
      <path d="M28.8335 10.5001L30.886 2L18.5 10.5001H28.8335Z" fill="#9CB844"/>
      <path d="M8.16582 10.5008L6.11328 2.00073L18.4993 10.5008H8.16582Z" fill="#9CB844"/>
      <path d="M18.5 27.5005L23.6667 36.0006L28.8335 27.5005H18.5Z" fill="#58237A"/>
      <path d="M13.334 36.0006L18.5007 27.5005L23.6675 36.0006H13.334Z" fill="#49267A"/>
      <path d="M8.16602 27.5005L13.3327 36.0006L18.4995 27.5005H8.16602Z" fill="#58237A"/>
      <path d="M18.5 10.5L23.6667 19.0001L28.8335 10.5H18.5Z" fill="#B53481"/>
      <path d="M8.16602 10.5L13.3327 19.0001L18.4995 10.5H8.16602Z" fill="#B53481"/>
      <path d="M18.5 27.4998L23.6667 18.9998L28.8335 27.4998H18.5Z" fill="#6E297D"/>
      <path d="M8.16602 27.4998L13.3327 18.9998L18.4995 27.4998H8.16602Z" fill="#6E297D"/>
      <path d="M13.334 19.0001L18.5007 10.5L23.6675 19.0001H13.334Z" fill="#DA7396"/>
      <path d="M23.666 18.9998L28.8327 10.4998L33.9995 18.9998H23.666Z" fill="#8F3682"/>
      <path d="M3 19.0018L8.16674 10.5017L13.3335 19.0018H3Z" fill="#8F3682"/>
      <path d="M13.334 18.9998L18.5007 27.4998L23.6675 18.9998H13.334Z" fill="#A6488B"/>
      <path d="M23.666 18.9998L28.8328 27.4998L33.9995 18.9998H23.666Z" fill="#753582"/>
      <path d="M3 18.9998L8.16674 27.4998L13.3335 18.9998H3Z" fill="#753582"/>
    </g>
  </g>
  <defs>
    <clipPath id="clip0_43272_20956">
      <rect width="37" height="40" fill="white"/>
    </clipPath>
    <clipPath id="clip1_43272_20956">
      <rect width="31" height="34" fill="white" transform="translate(3 2)"/>
    </clipPath>
  </defs>
</svg>
