<svg viewBox="0 0 69 23" fill="none" xmlns="http://www.w3.org/2000/svg"><path d="M15.195 7.297h-4.677v8.406h4.677V7.297z" fill="#FF5F00"/><path d="M10.815 11.5a5.337 5.337 0 0 1 2.041-4.203 5.346 5.346 0 1 0 0 8.406 5.337 5.337 0 0 1-2.041-4.203z" fill="#EB001B"/><path d="M21.506 11.5a5.345 5.345 0 0 1-8.649 4.203 5.348 5.348 0 0 0 0-8.406 5.346 5.346 0 0 1 8.65 4.203z" fill="#F79E1B"/><path d="M30.85 13.407V11.16c0-.859-.523-1.421-1.421-1.421-.45 0-.938.148-1.274.636-.261-.41-.636-.636-1.199-.636-.375 0-.75.113-1.046.523v-.449h-.785v3.593h.785v-1.984c0-.637.336-.938.859-.938.523 0 .785.336.785.938v1.984h.785v-1.984c0-.637.375-.938.859-.938.523 0 .784.336.784.938v1.984h.868zm11.642-3.593h-1.273V8.728h-.785v1.086h-.71v.71h.71v1.649c0 .824.336 1.308 1.234 1.308.336 0 .71-.113.972-.262l-.227-.675a1.256 1.256 0 0 1-.675.187c-.375 0-.524-.227-.524-.597v-1.61h1.274v-.71h.004zm6.663-.078c-.45 0-.75.226-.938.523v-.45h-.785v3.594h.785v-2.024c0-.597.262-.937.75-.937.148 0 .336.04.488.074l.227-.75c-.157-.03-.38-.03-.528-.03zm-10.068.374c-.375-.261-.899-.374-1.461-.374-.898 0-1.496.449-1.496 1.16 0 .597.45.937 1.234 1.046l.375.04c.41.073.637.187.637.374 0 .262-.301.45-.824.45-.523 0-.938-.188-1.2-.376l-.374.598c.41.3.972.449 1.535.449 1.046 0 1.648-.489 1.648-1.16 0-.637-.489-.973-1.234-1.086l-.375-.04c-.336-.038-.598-.113-.598-.335 0-.261.262-.41.676-.41.45 0 .898.188 1.125.301l.332-.636zm20.88-.374c-.448 0-.749.226-.936.523v-.45h-.785v3.594h.785v-2.024c0-.597.261-.937.75-.937.148 0 .335.04.488.074l.227-.741c-.153-.04-.376-.04-.528-.04zM49.94 11.61c0 1.086.75 1.871 1.91 1.871.523 0 .898-.113 1.273-.41l-.375-.636c-.3.226-.597.335-.937.335-.637 0-1.086-.449-1.086-1.16 0-.675.45-1.124 1.086-1.16.336 0 .636.114.937.336l.375-.636c-.375-.301-.75-.41-1.273-.41-1.16-.004-1.91.785-1.91 1.87zm7.26 0V9.815h-.785v.45c-.261-.337-.636-.524-1.125-.524-1.011 0-1.796.785-1.796 1.87 0 1.086.785 1.871 1.796 1.871.524 0 .899-.188 1.125-.523v.449h.785V11.61zm-2.882 0c0-.636.41-1.16 1.086-1.16.636 0 1.085.489 1.085 1.16 0 .637-.449 1.16-1.085 1.16-.672-.039-1.086-.527-1.086-1.16zm-9.392-1.874c-1.046 0-1.796.75-1.796 1.87 0 1.125.75 1.87 1.835 1.87.523 0 1.047-.148 1.46-.488l-.374-.562c-.3.227-.676.375-1.046.375-.489 0-.973-.227-1.086-.86h2.655v-.3c.035-1.155-.64-1.905-1.648-1.905zm0 .675c.488 0 .824.301.898.86h-1.87c.074-.485.41-.86.972-.86zm19.5 1.2V8.393h-.786v1.87c-.261-.336-.636-.523-1.125-.523-1.011 0-1.796.785-1.796 1.87 0 1.086.785 1.871 1.796 1.871.524 0 .899-.188 1.125-.523v.449h.785V11.61zm-2.883 0c0-.637.41-1.16 1.086-1.16.636 0 1.085.488 1.085 1.16 0 .636-.449 1.16-1.085 1.16-.676-.04-1.086-.528-1.086-1.16zm-26.275 0V9.813h-.785v.45c-.261-.337-.636-.524-1.125-.524-1.011 0-1.796.785-1.796 1.87 0 1.086.785 1.871 1.796 1.871.523 0 .898-.188 1.125-.523v.449h.785V11.61zm-2.917 0c0-.637.41-1.16 1.086-1.16.636 0 1.085.488 1.085 1.16 0 .636-.449 1.16-1.085 1.16-.676-.04-1.086-.528-1.086-1.16z" fill="#fff"/></svg>