<svg viewBox="0 0 69 23" fill="none" xmlns="http://www.w3.org/2000/svg"><path d="M51.217 16.247H48.7c-.092-.432-.19-.855-.268-1.282-.033-.176-.09-.245-.293-.243-1.01.013-2.019.01-3.028.002-.153-.001-.213.048-.26.184-.139.406-.291.809-.447 1.21-.02.054-.09.128-.139.128-.91.008-1.82.006-2.755.006.17-.401.332-.784.496-1.166l3.52-8.198c.254-.592.635-.84 1.29-.84h2.21c.073.334.146.662.217.991l1.731 8.102c.075.345.162.689.243 1.033v.073zm-3.294-3.624-.797-3.734a9.65 9.65 0 0 0-.033-.006l-1.388 3.74h2.218zM40.252 5.867c.332.06.667.11.996.184.3.068.594.162.913.25l-.471 2.152c-.421-.12-.823-.26-1.237-.348-.565-.122-1.145-.169-1.71-.015-.23.063-.463.183-.644.335-.31.26-.315.633-.018.906.204.188.447.343.689.485.55.323 1.129.604 1.664.95.63.406 1.09.966 1.187 1.722.17 1.337-.336 2.39-1.487 3.136-.723.469-1.542.678-2.395.756a8.757 8.757 0 0 1-3.497-.388c-.076-.024-.15-.055-.225-.084-.022-.01-.042-.025-.076-.046l.488-2.228c.194.083.376.166.562.239.89.35 1.807.51 2.76.336.247-.046.5-.152.71-.29.455-.298.498-.858.084-1.208-.273-.23-.6-.4-.911-.585-.485-.289-1-.534-1.46-.857-.588-.414-1.014-.966-1.095-1.7-.12-1.098.297-1.99 1.16-2.683.751-.603 1.643-.87 2.593-.983.053-.006.105-.023.157-.036h1.263zM30.465 6.057l-.411.965c-1.296 3.017-2.593 6.034-3.883 9.053-.061.144-.136.182-.286.18-.817-.006-1.635-.009-2.453.002-.173.003-.23-.056-.27-.208-.692-2.638-1.397-5.272-2.082-7.911-.126-.485-.378-.815-.85-1.018-.756-.326-1.542-.554-2.343-.74l-.104-.025c.004-.306.004-.306.302-.306h4.293c.678 0 1.168.385 1.297 1.04.363 1.858.718 3.716 1.077 5.573l.057.277c.038-.068.063-.107.08-.148.889-2.195 1.778-4.39 2.662-6.586.048-.12.108-.16.24-.16.83.007 1.66.004 2.49.004.054 0 .108.005.184.008zM29.38 16.253 31.616 6.06h2.71l-.334 1.531c-.614 2.804-1.23 5.608-1.838 8.414-.042.195-.113.257-.32.253-.743-.014-1.486-.005-2.23-.005h-.222z" fill="#fff"/></svg>